# xmcd CD database file
#
# Track frame offsets:
#	150
#	41017
#	84097
#	124104
#	162127
#	192400
#	235487
#
# Disc length: 3618 seconds
#
# Revision: 0
# Processed by: cddbd v1.5.2PL0 Copyright (c) Steve Scherf et al.
# Submitted via: CDex 1.51
#
DISCID=520e2007
DTITLE=Beck, Sultzman, Lawrence, Clarvis - Once is never enough
DYEAR=1996
DGENRE=Jazz
TTITLE0=Are you beautiful too?
TTITLE1=Once is never enough
TTITLE2=Little 'D'
TTITLE3=Believing is seeing
TTITLE4=Wun Tun
TTITLE5=Someone Somwhere
TTITLE6=For Keith
EXTD=YEAR: 1996
EXTT0=
EXTT1=
EXTT2=
EXTT3=
EXTT4=
EXTT5=
EXTT6=
PLAYORDER=
